<svg xmlns="http://www.w3.org/2000/svg" viewBox="0 0 512 512" width="30" height="30">
	<style>
		tspan { white-space:pre }
		.shp0 { fill: #ffffff } 
	</style>
	<path id="Layer" class="shp0" d="M170.72,216.48l-29.12,29.12l93.6,93.6l208,-208l-29.12,-29.12l-178.88,177.84zM422.4,256c0,91.52 -74.88,166.4 -166.4,166.4c-91.52,0 -166.4,-74.88 -166.4,-166.4c0,-91.52 74.88,-166.4 166.4,-166.4c15.6,0 31.2,2.08 45.76,6.24l32.24,-32.24c-23.92,-10.4 -49.92,-15.6 -78,-15.6c-114.4,0 -208,93.6 -208,208c0,114.4 93.6,208 208,208c114.4,0 208,-93.6 208,-208z" />
</svg>